<svg width="4000" height="400" viewBox="0 0 4000 400" fill="none" xmlns="http://www.w3.org/2000/svg">
<path d="M539 142L0 304V400H4000V344L3233.5 118L2431 317.5L2053 108.5L1555 334L1292.5 160.5L909.5 368L539 142Z" fill="#00A3FF"/>
<path d="M1580 344.5L1555 334L2053 108.5L1580 344.5Z" fill="#58C3FF"/>
<path d="M926 359L539 142L909.5 368L926 359Z" fill="#0084CE"/>
<path d="M1577 324L1292.5 160.5L1555 334L1577 324Z" fill="#0084CE"/>
<path d="M2502 300L2053 108.5L2431 317.5L2502 300Z" fill="#0084CE"/>
<path d="M4000 329L3233.5 118L4000 344V329Z" fill="#0084CE"/>
<path d="M0 304L539 142L0 322V304Z" fill="#58C3FF"/>
<path d="M909.5 368L924.5 378L1292.34 160.592L909.5 368Z" fill="#58C3FF"/>
<path d="M2518.5 323L2431 317.5L3233.5 118L2518.5 323Z" fill="#58C3FF"/>
</svg>
