<svg width="4000" height="400" viewBox="0 0 4000 400" fill="none" xmlns="http://www.w3.org/2000/svg">
<rect x="233" y="220" width="95" height="180" fill="#0084CE"/>
<rect x="31" y="144" width="159" height="256" fill="#0084CE"/>
<rect x="347" y="144" width="159" height="256" fill="#0084CE"/>
<rect x="690" y="247" width="384" height="153" fill="#0084CE"/>
<rect x="1622" y="247" width="407" height="153" fill="#0084CE"/>
<rect x="526" y="40" width="137" height="360" fill="#0084CE"/>
<rect x="3543" y="220" width="95" height="180" fill="#0084CE"/>
<rect x="3401" y="220" width="95" height="180" fill="#0084CE"/>
<rect x="3657" y="144" width="159" height="256" fill="#0084CE"/>
<rect x="3836" y="40" width="137" height="360" fill="#0084CE"/>
<rect x="1109" y="144" width="159" height="256" fill="#0084CE"/>
<rect x="1293" y="144" width="159" height="256" fill="#0084CE"/>
<rect x="2593" y="247" width="384" height="153" fill="#0084CE"/>
<rect x="3012" y="144" width="159" height="256" fill="#0084CE"/>
<rect x="3196" y="144" width="159" height="256" fill="#0084CE"/>
<rect x="2376" y="144" width="159" height="256" fill="#0084CE"/>
<rect x="2217" y="247" width="125" height="153" fill="#0084CE"/>
<rect x="2087" y="40" width="72" height="360" fill="#0084CE"/>
<rect x="1489" y="220" width="95" height="180" fill="#0084CE"/>
</svg>
