<svg width="4000" height="400" viewBox="0 0 4000 400" fill="none" xmlns="http://www.w3.org/2000/svg">
<rect width="95" height="180" transform="matrix(-1 0 0 1 3767 220)" fill="#00659E"/>
<rect width="159" height="256" transform="matrix(-1 0 0 1 3969 144)" fill="#00659E"/>
<rect width="159" height="256" transform="matrix(-1 0 0 1 3653 144)" fill="#00659E"/>
<rect width="384" height="153" transform="matrix(-1 0 0 1 3310 247)" fill="#00659E"/>
<rect width="407" height="153" transform="matrix(-1 0 0 1 2378 247)" fill="#00659E"/>
<rect width="137" height="360" transform="matrix(-1 0 0 1 3474 40)" fill="#00659E"/>
<rect width="95" height="180" transform="matrix(-1 0 0 1 457 220)" fill="#00659E"/>
<rect width="95" height="180" transform="matrix(-1 0 0 1 599 220)" fill="#00659E"/>
<rect width="159" height="256" transform="matrix(-1 0 0 1 343 144)" fill="#00659E"/>
<rect width="137" height="360" transform="matrix(-1 0 0 1 164.001 40)" fill="#00659E"/>
<rect width="159" height="256" transform="matrix(-1 0 0 1 2891 144)" fill="#00659E"/>
<rect width="159" height="256" transform="matrix(-1 0 0 1 2707 144)" fill="#00659E"/>
<rect width="384" height="153" transform="matrix(-1 0 0 1 1407 247)" fill="#00659E"/>
<rect width="159" height="256" transform="matrix(-1 0 0 1 988 144)" fill="#00659E"/>
<rect width="159" height="256" transform="matrix(-1 0 0 1 804 144)" fill="#00659E"/>
<rect width="159" height="256" transform="matrix(-1 0 0 1 1624 144)" fill="#00659E"/>
<rect width="125" height="153" transform="matrix(-1 0 0 1 1783 247)" fill="#00659E"/>
<rect width="72" height="360" transform="matrix(-1 0 0 1 1913 40)" fill="#00659E"/>
<rect width="95" height="180" transform="matrix(-1 0 0 1 2511 220)" fill="#00659E"/>
</svg>
