<svg width="4000" height="400" viewBox="0 0 4000 400" fill="none" xmlns="http://www.w3.org/2000/svg">
<path d="M41 235H141V400H41V235Z" fill="#00507C"/>
<path d="M3487 235H3587V400H3487V235Z" fill="#00507C"/>
<path d="M923 235H1023V400H923V235Z" fill="#00507C"/>
<path d="M1053 235H1153V400H1053V235Z" fill="#00507C"/>
<path d="M1183 235H1283V400H1183V235Z" fill="#00507C"/>
<path d="M2217 235H2317V400H2217V235Z" fill="#00507C"/>
<path d="M2087 235H2187V400H2087V235Z" fill="#00507C"/>
<path d="M1567 300H2013V400H1567V300Z" fill="#00507C"/>
<path d="M2948 300H3394V400H2948V300Z" fill="#00507C"/>
<path d="M184 300H630V400H184V300Z" fill="#00507C"/>
<path d="M698 300H873V400H698V300Z" fill="#00507C"/>
<path d="M873 300H698L787 256L873 300Z" fill="#00507C"/>
<path d="M1337 300H1512V400H1337V300Z" fill="#00507C"/>
<path d="M1512 300H1337L1426 256L1512 300Z" fill="#00507C"/>
<path d="M2410 300H2856V400H2410V300Z" fill="#00507C"/>
<path d="M3611 300H3786V400H3611V300Z" fill="#00507C"/>
<path d="M3786 300H3611L3700 256L3786 300Z" fill="#00507C"/>
<path d="M3810 300H3985V400H3810V300Z" fill="#00507C"/>
<path d="M3985 300H3810L3899 256L3985 300Z" fill="#00507C"/>
</svg>
