<svg width="4000" height="401" viewBox="0 0 4000 401" fill="none" xmlns="http://www.w3.org/2000/svg">
<path d="M41.5 235.5H140.5V399.5H41.5V235.5Z" fill="#00304A" stroke="#00304A"/>
<path d="M2962.5 236.5H3061.5V400.5H2962.5V236.5Z" fill="#00304A" stroke="#00304A"/>
<path d="M1053.5 235.5H1152.5V399.5H1053.5V235.5Z" fill="#00304A" stroke="#00304A"/>
<path d="M1183.5 235.5H1282.5V399.5H1183.5V235.5Z" fill="#00304A" stroke="#00304A"/>
<path d="M2217.5 235.5H2316.5V399.5H2217.5V235.5Z" fill="#00304A" stroke="#00304A"/>
<path d="M2087.5 235.5H2186.5V399.5H2087.5V235.5Z" fill="#00304A" stroke="#00304A"/>
<path d="M1567.5 300.5H2012.5V399.5H1567.5V300.5Z" fill="#00304A" stroke="#00304A"/>
<path d="M754.5 300.5H928.5V399.5H754.5V300.5Z" fill="#00304A" stroke="#00304A"/>
<path d="M929 300H754L843 256L929 300Z" fill="#00304A"/>
<path d="M1337.5 300.5H1511.5V399.5H1337.5V300.5Z" fill="#00304A" stroke="#00304A"/>
<path d="M1512 300H1337L1426 256L1512 300Z" fill="#00304A"/>
<path d="M3086.5 301.5H3260.5V400.5H3086.5V301.5Z" fill="#00304A" stroke="#00304A"/>
<path d="M3261 301H3086L3175 257L3261 301Z" fill="#00304A"/>
<path d="M3810.5 300.5H3984.5V399.5H3810.5V300.5Z" fill="#00304A" stroke="#00304A"/>
<path d="M3985 300H3810L3899 256L3985 300Z" fill="#00304A"/>
<path d="M3285.5 301.5H3459.5V400.5H3285.5V301.5Z" fill="#00304A" stroke="#00304A"/>
<path d="M3460 301H3285L3374 257L3460 301Z" fill="#00304A"/>
<path d="M2740.5 301.5H2914.5V400.5H2740.5V301.5Z" fill="#00304A" stroke="#00304A"/>
<path d="M2915 301H2740L2829 257L2915 301Z" fill="#00304A"/>
<path d="M2541.5 301.5H2715.5V400.5H2541.5V301.5Z" fill="#00304A" stroke="#00304A"/>
<path d="M2716 301H2541L2630 257L2716 301Z" fill="#00304A"/>
<path d="M2347.5 300.5H2521.5V399.5H2347.5V300.5Z" fill="#00304A" stroke="#00304A"/>
<path d="M2522 300H2347L2436 171.5L2522 300Z" fill="#00304A"/>
<path d="M163.5 300.5H337.5V399.5H163.5V300.5Z" fill="#00304A" stroke="#00304A"/>
<path d="M338 300H163L252 256L338 300Z" fill="#00304A"/>
<path d="M360.5 300.5H534.5V399.5H360.5V300.5Z" fill="#00304A" stroke="#00304A"/>
<path d="M535 300H360L449 256L535 300Z" fill="#00304A"/>
<path d="M557.5 300.5H731.5V399.5H557.5V300.5Z" fill="#00304A" stroke="#00304A"/>
<path d="M732 300H557L646 256L732 300Z" fill="#00304A"/>
</svg>
